<svg width="30" height="30" viewBox="0 0 26 28" fill="none" xmlns="http://www.w3.org/2000/svg">
<path d="M11.0062 1.90682C11.6215 1.55479 12.3772 1.55479 12.9925 1.90682L20.3102 6.09333C20.9329 6.44955 21.317 7.11196 21.317 7.82931V16.1708C21.317 16.8882 20.9329 17.5506 20.3102 17.9068L12.9925 22.0933C12.3772 22.4453 11.6215 22.4453 11.0062 22.0933L3.68848 17.9068C3.06583 17.5506 2.68164 16.8882 2.68164 16.1708V7.82931C2.68164 7.11196 3.06582 6.44955 3.68848 6.09333L11.0062 1.90682Z" fill="url(#paint0_linear_667_21045)"/>
<path fill-rule="evenodd" clip-rule="evenodd" d="M12.0384 6.66362C12.0384 7.58349 11.2927 8.32919 10.3728 8.32919C10.0386 8.32919 9.68689 8.39065 9.45055 8.62701L9.24712 8.83045C8.88746 9.19011 8.85556 9.75425 8.85556 10.2629C8.85556 10.7713 8.88752 11.3353 9.24705 11.6948L9.45209 11.8999C9.68805 12.1358 10.0391 12.1973 10.3728 12.1973C11.2927 12.1973 12.0384 12.943 12.0384 13.8629C12.0384 14.7828 11.2927 15.5285 10.3728 15.5285C9.45297 15.5285 8.70726 14.7828 8.70726 13.8629C8.70726 13.7517 8.71816 13.643 8.73895 13.5379C8.83063 13.0744 8.83999 12.5366 8.50588 12.2025C8.21547 11.912 7.76494 11.8798 7.35623 11.9203C7.30155 11.9257 7.24609 11.9285 7.18999 11.9285C6.27012 11.9285 5.52441 11.1828 5.52441 10.2629C5.52441 9.34302 6.27012 8.59731 7.18999 8.59731C7.24599 8.59731 7.30136 8.60008 7.35594 8.60548C7.76465 8.64591 8.21515 8.6136 8.50556 8.32318C8.83959 7.98914 8.83035 7.45152 8.73885 6.98807C8.71813 6.88313 8.70726 6.77464 8.70726 6.66362C8.70726 5.74375 9.45297 4.99805 10.3728 4.99805C11.2927 4.99805 12.0384 5.74375 12.0384 6.66362Z" fill="#B5BCC9"/>
<g filter="url(#filter0_d_667_21045)">
<path fill-rule="evenodd" clip-rule="evenodd" d="M11.9616 10.1377C11.9616 11.0576 12.7073 11.8033 13.6272 11.8033C13.9613 11.8033 14.313 11.8648 14.5493 12.1011L14.7529 12.3047C15.1125 12.6644 15.1444 13.2285 15.1444 13.7372C15.1444 14.2456 15.1125 14.8094 14.753 15.1689L14.5479 15.374C14.3119 15.61 13.9609 15.6714 13.6272 15.6714C12.7073 15.6714 11.9616 16.4171 11.9616 17.337C11.9616 18.2569 12.7073 19.0026 13.6272 19.0026C14.547 19.0026 15.2927 18.2569 15.2927 17.337C15.2927 17.2258 15.2818 17.1171 15.261 17.0119C15.1693 16.5485 15.16 16.0107 15.494 15.6767C15.7844 15.3862 16.235 15.354 16.6436 15.3945C16.6984 15.3999 16.7539 15.4027 16.81 15.4027C17.7299 15.4027 18.4756 14.657 18.4756 13.7372C18.4756 12.8173 17.7299 12.0716 16.81 12.0716C16.754 12.0716 16.6987 12.0743 16.6441 12.0797C16.2354 12.1202 15.7848 12.0879 15.4944 11.7974C15.1604 11.4634 15.1696 10.9257 15.2611 10.4622C15.2819 10.3573 15.2927 10.2488 15.2927 10.1377C15.2927 9.21787 14.547 8.47217 13.6272 8.47217C12.7073 8.47217 11.9616 9.21787 11.9616 10.1377Z" fill="white"/>
</g>
<defs>
<filter id="filter0_d_667_21045" x="5.04633" y="3.28585" width="20.3443" height="24.3607" filterUnits="userSpaceOnUse" color-interpolation-filters="sRGB">
<feFlood flood-opacity="0" result="BackgroundImageFix"/>
<feColorMatrix in="SourceAlpha" type="matrix" values="0 0 0 0 0 0 0 0 0 0 0 0 0 0 0 0 0 0 127 0" result="hardAlpha"/>
<feOffset dy="1.72877"/>
<feGaussianBlur stdDeviation="3.45755"/>
<feComposite in2="hardAlpha" operator="out"/>
<feColorMatrix type="matrix" values="0 0 0 0 0 0 0 0 0 0 0 0 0 0 0 0 0 0 0.15 0"/>
<feBlend mode="normal" in2="BackgroundImageFix" result="effect1_dropShadow_667_21045"/>
<feBlend mode="normal" in="SourceGraphic" in2="effect1_dropShadow_667_21045" result="shape"/>
</filter>
<linearGradient id="paint0_linear_667_21045" x1="11.9993" y1="1.33862" x2="11.9993" y2="22.6615" gradientUnits="userSpaceOnUse">
<stop stop-color="#353D51"/>
<stop offset="1" stop-color="#818A9C"/>
</linearGradient>
</defs>
</svg>
