<svg xmlns="http://www.w3.org/2000/svg" width="632" height="56" fill="none" viewBox="0 0 632 56">
  <g clip-path="url(#a)">
    <path fill="#2936BD" d="M3.536 47.472v-3.928H.72v-1.529h13.016v1.529h-2.603v3.922h3.234v1.553h-3.234v6.332h-1.7v-6.332H5.147c-.043 1.6-.335 2.867-.876 3.8-.54.934-1.47 1.85-2.786 2.752-.358-.389-.78-.813-1.27-1.281 1.185-.722 2.017-1.454 2.495-2.198.477-.744.743-1.763.796-3.057H0V47.48l3.536-.009Zm1.657-3.922v3.922h4.24v-3.928l-4.24.006Zm11.974 4.852a39.34 39.34 0 0 0-2.036-2.229l1.163-.899a70.36 70.36 0 0 1 2.144 2.14l-1.27.988Zm-.321 6.97-1.47-.428a94.528 94.528 0 0 0 1.225-5.46l1.439.428a748.363 748.363 0 0 0-1.194 5.46Zm.765-10.89a75.656 75.656 0 0 0-2.051-2.259l1.224-.883c.817.835 1.521 1.549 2.113 2.14l-1.286 1.002Zm7.719.273h3.444v5.98h-2.756v3.056a1.74 1.74 0 0 1-.336 1.175 1.532 1.532 0 0 1-1.102.428 42.64 42.64 0 0 1-1.562.03 31.986 31.986 0 0 0-.306-1.342c.34.018.747.03 1.224.03a.647.647 0 0 0 .49-.152.815.815 0 0 0 .154-.55v-2.67h-2.774v-5.973h1.993c.13-.487.258-.98.383-1.477h-3.417v3.782a24.803 24.803 0 0 1-.352 4.741 14.762 14.762 0 0 1-1.394 3.785 44.03 44.03 0 0 0-1.3-1.082c.57-.947.983-1.979 1.224-3.057a22.37 22.37 0 0 0 .321-4.347v-5.17H29.57v1.342h-3.797c-.091.259-.24.753-.443 1.483v-.013Zm-3.922 10.25a20.345 20.345 0 0 0-.995-.899 16.882 16.882 0 0 0 2.143-2.806l1.181.685a39.131 39.131 0 0 1-2.33 3.02Zm5.942-7.854V45.99h-4.133v1.158l4.133.003Zm0 2.348V48.34h-4.133v1.16h4.133Zm1.286 5.338a573.772 573.772 0 0 0-2.143-2.806l1.056-.7a49.64 49.64 0 0 1 2.235 2.714l-1.148.792Zm12.862-5.766h3.448V50.6H30.489v-1.53h3.432v-3.598h-2.927v-1.529h2.927v-2.73h1.699v2.73h4.18v-2.73h1.699v2.73h2.926v1.529H41.5v3.598Zm-9.739 6.377a32.344 32.344 0 0 0-1.04-1.372 42.424 42.424 0 0 0 4.81-2.929l1.178 1.205c-1.86 1.24-3.509 2.273-4.948 3.096Zm8.056-6.377v-3.598h-4.18v3.598h4.18Zm3.616 6.332c-1.872-1.272-3.45-2.291-4.734-3.058l1.056-1.204c1.633.958 3.221 1.929 4.764 2.913l-1.087 1.349Zm3.291.153-1.01-.765c.34-.508.594-1.069.75-1.66.144-.79.206-1.594.183-2.397v-2.057h3.46v5.261c.033.37-.059.74-.26 1.052a1.39 1.39 0 0 1-.965.382c-.398.021-.75.03-1.056.03a10.217 10.217 0 0 0-.184-1.082h.75a.717.717 0 0 0 .475-.107.764.764 0 0 0 .092-.474v-4.21h-1.164v1.224c.021.91-.056 1.82-.23 2.714a7.25 7.25 0 0 1-.841 2.089Zm7.348-13.333h6.093v1.015H48.724v.7h10.214v.96H47.224v-1.66h-1.347v-1.024h6.371a41.77 41.77 0 0 0-.352-.99l1.806-.169.368 1.168ZM46.933 53.19v-.837h2.817v.837h-2.817Zm.123-1.813v-.84h2.587v.84h-2.587Zm11.634-3.363H47.42v-2.445h11.27v2.445Zm-1.485-.898v-.642H48.89v.642h8.316Zm-4.081 5.6c.551.467 1.051.925 1.5 1.373l-.704.822a58.874 58.874 0 0 0-1.118-1.204 5.388 5.388 0 0 1-1.837 1.834 34.01 34.01 0 0 0-.707-.917c.817-.467 1.353-.92 1.61-1.357a3.83 3.83 0 0 0 .399-1.874V50.17h.98v1.223a6.99 6.99 0 0 1-.123 1.323Zm-2.391.123V48.69h4.06v4.149h-1.01v-3.204H51.73v3.204h-.998Zm4.592 2.73c-.306-.254-.597-.51-.903-.765a4.72 4.72 0 0 0 .857-1.571 9.09 9.09 0 0 0 .215-2.302V48.69h3.398v5.17c-.005.09.016.18.061.26a.216.216 0 0 0 .169.076.19.19 0 0 0 .168-.092.657.657 0 0 0 .092-.275c.052-.416.089-.917.107-1.495l.934.337a17.39 17.39 0 0 1-.165 1.617c-.022.26-.137.503-.325.684a1.03 1.03 0 0 1-.735.245H58.8a1.033 1.033 0 0 1-.78-.26 1.221 1.221 0 0 1-.245-.853v-4.47H56.55v1.373a10.75 10.75 0 0 1-.245 2.623c-.215.7-.55 1.357-.992 1.942l.012-.003Zm1.868-2.73c-.225-.63-.49-1.286-.796-1.97l.796-.305c.311.603.572 1.231.78 1.877l-.78.398Zm12.177-5.55v2.063h-2.021V47.28l2.02.009Zm10.875-.474v8.652h-1.531v-5.809a20.475 20.475 0 0 1-1.822 3.235 45.612 45.612 0 0 0-.551-1.755 14.287 14.287 0 0 0 2.189-4.347h-1.99v-1.388h2.174v-1.985c-.674.051-1.286.092-1.837.123a43.404 43.404 0 0 0-.23-1.434 70.482 70.482 0 0 0 5.407-.47l.276 1.433c-.694.092-1.394.168-2.098.23v2.103h2.006v1.388l-1.993.024Zm1.408 3.904a97.405 97.405 0 0 0-1.837-1.678l.903-1.021c.652.54 1.301 1.073 1.944 1.601l-1.01 1.098Zm7.213.84v3.935H87.21v-3.781l-5.128.455-.153-1.495 5.281-.47v-9.001h1.656v8.848l1.93-.169.091 1.495-2.02.184Zm-3.83-2.228c-1.071-.936-1.913-1.637-2.526-2.103l.98-1.021c.696.507 1.558 1.162 2.587 1.965l-1.04 1.159Zm.735-3.598a76.767 76.767 0 0 0-2.557-2.198l.95-1.037c.987.783 1.87 1.49 2.648 2.122l-1.041 1.113Zm6.157 5.887v-1.387h14.148v1.388H91.928Zm.337-4.28v-3.264h13.429v3.265h-1.593v-1.893H93.888v1.893h-1.623Zm2.388-3.387a26.096 26.096 0 0 0-1.47-2.18l1.638-.458c.54.668 1.04 1.365 1.5 2.088l-1.668.55Zm1.179 11.471a11.705 11.705 0 0 0-.306-1.587 33.23 33.23 0 0 0 1.99.061c.298.035.599-.041.845-.214.171-.237.247-.53.214-.822v-3.097l2.449-1.556h-6.555v-1.373h8.934v1.419l-3.184 1.953v3.17c0 .704-.153 1.214-.459 1.53-.306.326-.827.495-1.53.504-.705.009-1.498.021-2.398.021v-.009Zm2.755-11.73a442.89 442.89 0 0 0-1.365-2.272l1.64-.336c.51.772.984 1.52 1.425 2.244l-1.7.364Zm3.919.856-1.531-.566c.701-.882 1.355-1.8 1.96-2.751l1.73.52c-.71.945-1.429 1.88-2.156 2.806l-.003-.01Zm10.493 1.913c.03-.223.067-.498.107-.822.071-.611.122-1.308.153-2.091h-4.957v-1.51h12.02v1.504h-5.315a52.428 52.428 0 0 1-.168 2.106l-.107.807h6.616v1.51h-6.892a10.24 10.24 0 0 1-1.929 4.134c-.971 1.223-2.38 2.367-4.225 3.433-.388-.45-.775-.903-1.163-1.357 1.733-.997 3.013-1.963 3.842-2.898a8.06 8.06 0 0 0 1.715-3.312h-5.438v-1.51l5.741.006Zm3.616 8.603c-.788 0-1.361-.172-1.718-.516-.357-.345-.541-.92-.551-1.725V48.83h1.653v3.552c-.034.328.059.656.261.917.263.197.592.285.918.245h1.228c.311.027.621-.06.872-.245a1.57 1.57 0 0 0 .368-.868 15.65 15.65 0 0 0 .184-1.755l1.622.52c-.101.945-.205 1.666-.306 2.164-.068.508-.325.97-.719 1.297a2.85 2.85 0 0 1-1.684.412l-2.128-.003Zm6.322.444V41.783h4.593v1.455l-1.133 3.92a5.537 5.537 0 0 1 1.179 3.582 3.07 3.07 0 0 1-.429 1.77 1.784 1.784 0 0 1-1.304.716c-.368.03-.692.046-.98.046a12.171 12.171 0 0 0-.429-1.569c.289.04.581.055.873.046a.81.81 0 0 0 .661-.336 1.85 1.85 0 0 0 .196-.978 4.76 4.76 0 0 0-1.179-3.018l1.149-4.225h-1.761v12.324l-1.436-.006Zm6.923-6.378v4.302c.786-.316 1.566-.636 2.342-.96 0 .458.021.987.031 1.587-.919.315-1.741.63-2.465.944a5.28 5.28 0 0 0-1.056.505l-.781-1.19c.153-.178.268-.386.337-.611.082-.235.124-.482.122-.73v-11.18h7.29v7.318l-5.82.015Zm4.347-4.332v-1.614h-4.347V44.8h4.347Zm0 1.342h-4.347v1.618h4.347v-1.618Zm-.122 5.965a10.414 10.414 0 0 0 2.835 1.77c-.298.438-.579.896-.842 1.373-1.574-.775-2.738-1.644-3.493-2.608-.756-.964-1.353-2.337-1.791-4.118l1.362-.26a9.96 9.96 0 0 0 1.133 2.852 71.7 71.7 0 0 0 2.449-1.663l.873 1.128c-.6.377-1.442.885-2.526 1.523v.003Z"/>
    <path fill="#000" d="M236.739 29.285v-2.693h24.883v2.693h-24.883Zm4.501-17.316v1.578c1.729-.267 3.476-.545 5.242-.832l.306 2.81c-2.347.305-4.368.63-6.062.975a7.172 7.172 0 0 0-1.932.688l-1.43-2.293a2.34 2.34 0 0 0 .768-1.78V4.058h10.086v7.912h-6.978Zm17.363 13.59h-18.817V17.16h18.817v8.398ZM245.132 7.214V6.21h-3.892v1.006h3.892Zm0 1.633h-3.892v1.067h3.892V8.848Zm1.745 8.086c-.917-1.34-2.055-2.84-3.414-4.503l2.223-1.43c1.114 1.2 2.339 2.576 3.674 4.127l-2.483 1.807Zm7.994 3.641v-1.06h-11.353v1.06h11.353Zm0 2.837v-1.088h-11.353v1.088h11.353ZM253.68 8.964c.037-.306.07-.612.107-.948.034-.4.061-.822.08-1.26h-4.593V4.232h11.169v2.526h-3.493l-.055 1.26c-.034.287-.071.61-.104.947h4.102v2.55h-4.724a8.928 8.928 0 0 1-2.119 3.01 17.893 17.893 0 0 1-3.888 2.752 28.932 28.932 0 0 0-1.935-2.58c2.208-1.031 3.7-2.092 4.473-3.182h-3.597V9.45l.661-2.235h2.645c-.159.59-.306 1.174-.474 1.749h1.745Zm3.098 7.511c-.796 0-1.378-.191-1.748-.574-.352-.364-.53-.936-.53-1.721v-2.14h2.78v1.317c-.017.2.029.402.132.575a.694.694 0 0 0 .505.143h.45a.684.684 0 0 0 .527-.201.798.798 0 0 0 .214-.486c.071-.499.132-.966.184-1.407.759.288 1.553.565 2.382.832a14.102 14.102 0 0 1-.343 1.978 1.924 1.924 0 0 1-.768 1.29 2.835 2.835 0 0 1-1.694.404l-2.091-.01Zm14.638-11.559h5.665v3.057h-7.44a23.044 23.044 0 0 1-2.937 3.498c-.816-.86-1.619-1.711-2.409-2.553a19.016 19.016 0 0 0 2.489-2.923 16.768 16.768 0 0 0 1.614-3.01l3.784.286a90.338 90.338 0 0 1-.766 1.645Zm3.705 8.603h-8.573v-3.097h21.362v7.854h-9.106v1.55h10.138a169.365 169.365 0 0 1-.239 4.387c-.108 1.413-.444 2.406-1.007 2.98-.564.612-1.552.947-2.964 1.004-1.182.036-2.532.056-4.051.058-.245-1.32-.474-2.446-.686-3.412 1.305.037 2.61.056 3.916.058.305.026.611-.044.873-.202.189-.19.299-.446.306-.715.052-.364.086-.71.104-1.033h-6.377v7.251h-3.674v-5.36c-2.101 2.16-5.012 3.87-8.736 5.13a571.04 571.04 0 0 0-1.931-3.466c3.494-.956 6.115-2.141 7.862-3.555h-6.644l1.084-7.857h8.365l-.022-1.575Zm-3.31-3.268c-.6-.993-1.314-2.14-2.143-3.442l2.912-1.003c.935 1.3 1.861 2.6 2.78 3.9l-3.549.545Zm3.31 9.575v-1.55h-5.11l-.236 1.55h5.346Zm7.465-14.91h6.643v3.057h-8.416a22.721 22.721 0 0 1-1.987 2.523 80.212 80.212 0 0 0-2.541-2.293 18.66 18.66 0 0 0 3.282-5.219l3.76.26a72.11 72.11 0 0 1-.735 1.672h-.006Zm1.641 10.178v-1.575h-5.426v1.575h5.426Zm-1.164-4.843a160.88 160.88 0 0 0-2.171-3.412l2.937-1.033a355.93 355.93 0 0 0 2.728 3.812l-3.494.633Zm9.687 17.371v-4.528h23.955v4.528H292.75Zm1.853-17.12V5.97h20.247v4.53h-20.247Zm31.18 2.415v2.953c0 3.249-.22 5.876-.661 7.882a27.651 27.651 0 0 1-2.517 6.652c-.686-.917-1.55-2.055-2.593-3.412a20.948 20.948 0 0 0 1.696-5.075c.263-1.508.395-3.906.395-7.193V4.228h21.943v8.689h-18.263Zm14.663-3.21V7.64h-14.663v2.067h14.663Zm.055 19.12h-10.272v1.32h-3.549V15.094h6.856v-1.777h3.6v1.777h6.907v15.053h-3.545l.003-1.32Zm-6.962-8.255v-2.323h-3.31v2.323h3.31Zm0 5.13v-2.336h-3.31v2.351l3.31-.015Zm6.962-5.13v-2.323h-3.368v2.323h3.368Zm0 5.13v-2.336h-3.368v2.351l3.368-.015ZM359.768 29H348.97V4.517h10.324c2.541 0 4.517.602 5.927 1.807a4.958 4.958 0 0 1 1.88 3.955c0 1.492-.361 2.715-1.084 3.67-.722.953-1.835 1.651-3.337 2.093a6.19 6.19 0 0 1 3.839 2.036 5.424 5.424 0 0 1 1.51 3.669c0 2.352-.644 4.13-1.932 5.332-1.359 1.28-3.469 1.92-6.329 1.923Zm2.358-17.774a2.578 2.578 0 0 0-.821-2.008c-.636-.593-1.581-.89-2.832-.89h-4.764v6.173h4.764a4.268 4.268 0 0 0 1.905-.404c1.13-.546 1.713-1.503 1.748-2.87Zm-.717 7.683a4.842 4.842 0 0 0-2.434-.575h-5.266v6.867h5.294c1.341 0 2.346-.296 3.016-.887.669-.591 1.005-1.47 1.007-2.638a2.967 2.967 0 0 0-1.617-2.767Zm10.747-10.177v-4.28h4.633v4.28h-4.633Zm0 20.269V11.443h4.633v17.545l-4.633.013Zm17.311-18.004c2.754 0 4.889.878 6.405 2.635 1.411 1.645 2.117 3.843 2.119 6.595 0 2.81-.768 5.028-2.303 6.652-1.555 1.663-3.673 2.494-6.353 2.492-2.522 0-4.578-.841-6.166-2.522-1.588-1.682-2.383-3.88-2.385-6.595 0-2.77.759-4.996 2.278-6.68 1.553-1.718 3.688-2.577 6.405-2.577Zm-.132 14.506c1.272 0 2.233-.43 2.885-1.29.689-.899 1.033-2.237 1.031-4.014-.015-1.74-.37-3.057-1.056-3.974-.686-.917-1.607-1.358-2.86-1.376a3.374 3.374 0 0 0-2.884 1.376c-.673.917-1.009 2.255-1.007 4.014.002 1.759.382 3.097 1.139 4.014a3.365 3.365 0 0 0 2.752 1.253v-.003Zm26.469-6.998h-14.451v-3.524h14.451v3.524ZM430.414 4.2c3.37 0 6.079 1.243 8.126 3.728 1.96 2.37 2.949 5.332 2.967 8.887 0 3.785-1.033 6.842-3.098 9.171-2.066 2.33-4.739 3.487-8.019 3.47-3.266-.059-5.919-1.215-7.96-3.47-2.042-2.254-3.083-5.302-3.123-9.144 0-3.748.97-6.768 2.911-9.061 2.033-2.385 4.765-3.578 8.196-3.58Zm-.159 20.79c1.907 0 3.39-.727 4.449-2.18 1.059-1.453 1.597-3.45 1.613-5.992 0-2.54-.547-4.546-1.641-6.02a5.105 5.105 0 0 0-4.366-2.238 5.311 5.311 0 0 0-4.369 2.238c-1.128 1.51-1.702 3.517-1.72 6.02 0 2.58.591 4.606 1.772 6.077a5.166 5.166 0 0 0 4.262 2.092v.003Zm14.718-3.764 4.632-1.03c.231 1.775.795 3.094 1.693 3.956.899.862 2.108 1.282 3.629 1.26 1.224 0 2.195-.315 2.911-.945a2.845 2.845 0 0 0 .977-2.238 2.918 2.918 0 0 0-.554-1.834c-.423-.553-1.173-1.04-2.251-1.462a29.552 29.552 0 0 0-4.023-1.262c-2.278-.573-3.892-1.414-4.843-2.522-.9-1.07-1.35-2.533-1.35-4.387a5.836 5.836 0 0 1 2.198-4.644c1.535-1.299 3.528-1.948 5.979-1.948 2.754 0 4.881.573 6.381 1.718 1.41 1.093 2.372 2.795 2.884 5.106l-4.632.972c-.159-1.184-.591-2.092-1.295-2.724-.741-.688-1.785-1.03-3.123-1.03-1.096 0-1.97.267-2.621.8a2.24 2.24 0 0 0-.848 1.78 2.268 2.268 0 0 0 .872 1.893c.6.476 1.713.916 3.338 1.317 1.683.373 3.311.96 4.843 1.749a7.294 7.294 0 0 1 3.175 2.81 6.924 6.924 0 0 1 .9 3.5c0 2.199-.723 3.948-2.17 5.246-1.552 1.427-3.749 2.14-6.592 2.14-2.997 0-5.308-.689-6.935-2.067-1.578-1.29-2.636-3.341-3.175-6.154Zm27.751-6.619V8.36h-4.219V4.458h22.418v3.9h-3.891v6.25h4.951v4.014h-4.951v11.067h-4.023V18.622h-6.353c-.123 2.714-.633 4.922-1.531 6.622-.898 1.7-2.399 3.382-4.501 5.047a57.696 57.696 0 0 0-3.095-3.183c1.816-1.339 3.078-2.572 3.784-3.699.741-1.204 1.182-2.8 1.323-4.787h-5.456v-4.014h5.544Zm4.024-6.248v6.248h6.261V8.36h-6.261Zm20.978 9.287a293.683 293.683 0 0 0-3.098-4.674l2.887-2.119c1.076 1.427 2.198 2.908 3.368 4.442l-3.157 2.351Zm.634 12.23-3.386-1.007c.845-3.956 1.498-7.3 1.959-10.033l3.307.944c-.759 4.021-1.386 7.39-1.88 10.107v-.012Zm.055-19.78a70.147 70.147 0 0 0-3.282-4.675l2.964-2.064c.918 1.13 2.056 2.581 3.414 4.357l-3.096 2.381Zm14.479-.346h5.756v11.87h-4.592v5.13c0 1.013-.202 1.78-.613 2.294a2.635 2.635 0 0 1-1.959.89c-.935.058-1.956.087-3.062.085a95.108 95.108 0 0 0-.585-3.296 54.85 54.85 0 0 0 1.908.028.88.88 0 0 0 .713-.257 1.38 1.38 0 0 0 .239-.89V21.63h-4.556V9.762h3.123a43.05 43.05 0 0 0 .45-2.064h-4.736v6.42c0 3.84-.169 6.803-.506 8.888a37.087 37.087 0 0 1-2.143 7.422 83.655 83.655 0 0 0-3.043-2.837 22.212 22.212 0 0 0 1.721-5.56c.281-1.741.422-4.321.422-7.741V4.259h18.211v3.44h-6.166c-.159.592-.355 1.28-.582 2.063V9.75Zm-6.803 19.566a66.578 66.578 0 0 0-2.33-2.235 27.879 27.879 0 0 0 3.573-5.106l2.728 1.608c-1.078 1.69-2.399 3.61-3.965 5.76l-.006-.027Zm9.185-14.98v-1.53h-5.811v1.53h5.811Zm0 4.127v-1.517h-5.811v1.575l5.811-.058Zm2.091 10.495a202.267 202.267 0 0 0-3.337-5.16l2.449-1.75a251.753 251.753 0 0 1 3.546 4.932l-2.658 1.978Zm10.931-14.351V8.36h-4.207V4.458h22.421v3.9h-3.895v6.25h4.951v4.014h-4.951v11.067h-4.023V18.622h-6.353c-.122 2.714-.633 4.922-1.531 6.622-.898 1.7-2.398 3.382-4.5 5.047a57.33 57.33 0 0 0-3.096-3.183c1.817-1.339 3.078-2.572 3.784-3.699.741-1.204 1.182-2.8 1.323-4.787h-5.456v-4.014h5.533Zm4.023-6.248v6.248h6.273V8.36h-6.273Zm23.955 2.436a582.685 582.685 0 0 1-.08 4.586c-.159 3.938-.45 6.805-.873 8.603-.422 1.798-1.287 3.918-2.593 6.362a285.516 285.516 0 0 0-2.648-3.057 21.863 21.863 0 0 0 1.987-5.16c.316-1.472.52-3.728.612-6.766.055-1.529.091-3.048.107-4.559h-2.25V7.136h12.045v3.668l-6.307-.009Zm-.885 18.634a45.112 45.112 0 0 0-.717-3.813c.656.04 1.341.059 2.067.059.371.037.741-.073 1.032-.306.232-.348.352-.76.343-1.177.126-1.894.197-4.136.211-6.726h-4.143V13.77h7.704c-.051 3.84-.153 7.758-.306 11.755-.019 1.241-.266 2.167-.741 2.779-.496.65-1.225 1.003-2.223 1.06-.89.027-1.966.048-3.227.065Zm.131-20.697a103.536 103.536 0 0 0-1.163-5.247l4.048-.403c.355 1.663.673 3.346.955 5.047l-3.84.603Zm15.248 13.757a16.856 16.856 0 0 0 4.764 3.583l-2.358 3.974a30.36 30.36 0 0 1-4.724-4.234 31.533 31.533 0 0 1-5.205 4.528 124.05 124.05 0 0 0-2.382-3.782c2.258-1.378 4.022-2.745 5.294-4.103-1.288-2.386-2.224-5.683-2.808-9.89l2.887-3.326c.46 4.225 1.218 7.475 2.275 9.75a17.67 17.67 0 0 0 1.35-4.28c.343-1.828.564-3.677.662-5.534h3.542a50.366 50.366 0 0 1-1.032 7.426 22.764 22.764 0 0 1-2.253 5.891l-.012-.003Zm-2.541-15.31h7.066v3.87h-8.536a61.866 61.866 0 0 1-3.549 6.94 241.989 241.989 0 0 0-2.091-3.758c1.923-3.132 3.361-6.859 4.314-11.18l3.892.517c-.351 1.262-.71 2.466-1.075 3.614l-.021-.003Zm12.574 22.996a68.217 68.217 0 0 0-2.648-3.898c3.741-1.78 6.362-3.796 7.862-6.05 1.464-2.216 2.258-5.054 2.382-8.515.192-3.766.289-6.585.291-8.456h4.262a970.94 970.94 0 0 0-.266 8.11 21.78 21.78 0 0 0-.873 1.322c-.194 4.261-1.085 7.691-2.673 10.29-1.588 2.599-4.367 4.998-8.337 7.197Zm-1.959-16.026v-4.127h23.636v4.127h-23.636Zm21.493 15.71c-3.391-1.569-5.958-3.67-7.703-6.306-1.801-2.752-2.877-6.364-3.231-10.838l2.912-1.978c.388 4.225 1.429 7.493 3.123 9.804 1.694 2.312 4.271 4.044 7.731 5.198a638.102 638.102 0 0 0-2.847 4.12h.015Zm6.708-6.077a159.74 159.74 0 0 0-1.225-3.21 21.802 21.802 0 0 0 4.421-1.78 16.95 16.95 0 0 0 3.629-2.58l2.859 1.407a28.471 28.471 0 0 1-9.684 6.163Zm19.558-1.55V25.1h-3.438v-2.981h-9.295v3.326h-3.439v-5.879h12.07a29.548 29.548 0 0 1-1.455-1.26H606.35v-2.638h6.295v-1.06h-4.286V12.36h4.286v-1.09h-3.748V8.917h3.748V7.802h3.628v1.116h4.234V7.802h3.626v1.116h3.839v2.351h-3.83v1.091h4.396v2.235h-4.396v1.061h6.38v2.638h-4.816a18.97 18.97 0 0 0 5.318 2.092 31.919 31.919 0 0 0-1.27 3.213 27.914 27.914 0 0 1-3.151-1.367Zm-5.768-17.514h9.528v5.016h-3.674V7.356H610.22v2.378h-3.674V4.718h9.773c-.155-.477-.313-.975-.475-1.492l4.633-.257c.132.573.252 1.155.358 1.749Zm-12.783 25.659a78.37 78.37 0 0 0-1.482-3.385 39.166 39.166 0 0 0 6.354-.657c1.428-.328 2.416-.778 2.963-1.348.549-.459.849-1.195.9-2.208h3.626c-.176 1.7-.59 2.99-1.244 3.87-.74.955-1.965 1.719-3.674 2.294-1.708.574-4.189 1.052-7.443 1.433Zm12.465-18.016v-1.092h-4.235v1.091h4.235Zm0 3.295v-1.06h-4.235v1.06h4.235Zm8.177 14.623a398.603 398.603 0 0 0-11.75-3.327l2.011-2.467c3.564.803 7.305 1.683 11.224 2.639l-1.485 3.155Z"/>
  </g>
  <path fill="#000" d="m21.28 11.36-4.529 1.118a5.318 5.318 0 0 0-1.745-2.98 4.762 4.762 0 0 0-3.23-1.178c-1.819 0-3.257.803-4.314 2.41-.97 1.51-1.455 3.421-1.457 5.735 0 2.598.573 4.662 1.72 6.19 1.078 1.427 2.437 2.14 4.079 2.14 1.463-.018 2.627-.486 3.493-1.403.865-.917 1.43-2.293 1.693-4.127l4.528 1.529c-.53 2.733-1.616 4.806-3.257 6.22-1.633 1.454-3.786 2.18-6.457 2.178-3.32 0-5.958-1.186-7.915-3.556a12.268 12.268 0 0 1-2.17-4.041 16.983 16.983 0 0 1-.717-5.13c0-3.767.997-6.797 2.991-9.09 1.994-2.292 4.589-3.439 7.783-3.439a9.38 9.38 0 0 1 6.301 2.235 9.741 9.741 0 0 1 3.202 5.188Zm23.847 0-4.525 1.118a5.34 5.34 0 0 0-1.748-2.98 4.756 4.756 0 0 0-3.23-1.178c-1.815 0-3.253.803-4.314 2.41-.97 1.51-1.455 3.421-1.455 5.735 0 2.598.574 4.662 1.721 6.19 1.074 1.427 2.432 2.14 4.075 2.14 1.464-.018 2.628-.486 3.494-1.403.865-.917 1.43-2.293 1.696-4.127l4.525 1.529c-.53 2.733-1.617 4.806-3.258 6.22-1.633 1.454-3.785 2.18-6.457 2.178-3.319 0-5.957-1.186-7.914-3.556-.97-1.2-1.707-2.57-2.171-4.041a17.098 17.098 0 0 1-.713-5.13c0-3.767.997-6.797 2.99-9.09 1.995-2.292 4.588-3.439 7.78-3.439a9.38 9.38 0 0 1 6.302 2.235 9.742 9.742 0 0 1 3.202 5.188Zm20.355-2.866H54.26v6.191h9.798v4.164H54.26v9.92h-4.74V4.286h15.962v4.21Zm8.787 5.876V8.121h-4.207v-3.9h22.427v3.9h-3.892v6.25h4.951v4.013h-4.95v11.067h-4.024V18.384h-6.35c-.124 2.715-.634 4.922-1.53 6.622-.897 1.7-2.397 3.383-4.501 5.048a57.476 57.476 0 0 0-3.096-3.183c1.817-1.339 3.079-2.572 3.785-3.699.74-1.204 1.181-2.8 1.322-4.788h-5.45V14.37h5.515Zm4.023-6.249v6.25h6.273V8.12h-6.273Zm20.991 9.289a310.683 310.683 0 0 0-3.096-4.675l2.885-2.119a777.99 777.99 0 0 0 3.368 4.442l-3.157 2.351Zm.637 12.228-3.39-1.006c.85-3.956 1.503-7.3 1.96-10.034l3.307.945c-.756 4.021-1.381 7.39-1.877 10.107v-.012Zm.052-19.78a70.555 70.555 0 0 0-3.282-4.674l2.963-2.064a190.01 190.01 0 0 1 3.414 4.356l-3.095 2.382Zm14.479-.345h5.743v11.87h-4.592v5.13c0 1.012-.202 1.78-.613 2.293a2.63 2.63 0 0 1-1.956.89c-.937.06-1.957.088-3.062.086a89.532 89.532 0 0 0-.581-3.296c.51.018 1.145.027 1.904.027a.877.877 0 0 0 .713-.256c.18-.26.264-.575.239-.89v-3.974h-4.553V9.525h3.123c.16-.648.31-1.336.45-2.064h-4.736v6.42c0 3.84-.167 6.802-.502 8.887a37.219 37.219 0 0 1-2.143 7.423 84.45 84.45 0 0 0-3.044-2.837 22.038 22.038 0 0 0 1.721-5.56c.282-1.741.422-4.322.422-7.742V4.023h18.212v3.44h-6.167a88.32 88.32 0 0 1-.578 2.063v-.012Zm-6.804 19.565a66.51 66.51 0 0 0-2.329-2.234 27.927 27.927 0 0 0 3.573-5.106l2.728 1.608c-1.078 1.69-2.402 3.61-3.972 5.76v-.028Zm9.186-14.98V12.57h-5.796v1.528h5.796Zm0 4.127V16.71h-5.796v1.575l5.796-.058Zm2.091 10.496a211.458 211.458 0 0 0-3.334-5.16l2.434-1.75a251.461 251.461 0 0 1 3.545 4.932l-2.645 1.978Zm14.662-24.442a710.51 710.51 0 0 1 5.799 6.307l-2.621 2.98-4.779-6.047a27.353 27.353 0 0 1-6.736 7.741 58.317 58.317 0 0 0-1.347-3.843 18.514 18.514 0 0 0 3.889-3.956 21.25 21.25 0 0 0 2.568-4.674l3.812.26c-.223.44-.407.85-.585 1.232Zm-3.545 24.965c-1.392 0-2.398-.363-3.019-1.089-.62-.725-.921-1.873-.9-3.442v-12.47h11.117a328.714 328.714 0 0 1-.211 6.508c-.071 1.26-.334 2.18-.793 2.752-.459.572-1.158.917-2.143 1.003a87.806 87.806 0 0 1-3.062.116c-.204-1.28-.39-2.437-.557-3.47.863.04 1.552.06 2.066.058.311.012.614-.098.845-.306.193-.3.299-.649.306-1.006.035-.572.053-1.26.053-2.063h-4.235v8.114c0 .65.107 1.091.306 1.32a1.363 1.363 0 0 0 1.084.37h2.808c.366.022.729-.078 1.032-.284.286-.22.483-.536.554-.89.124-.63.266-1.452.425-2.467 1.252.5 2.346.92 3.282 1.263a31.452 31.452 0 0 1-.688 3.124c-.3 1.07-.733 1.816-1.299 2.238-.565.422-1.456.632-2.672.63l-4.299-.01Zm9.158-6.564V6.137h3.413V22.68h-3.413Zm1.322 6.995a155.066 155.066 0 0 0-.661-4.216c1.096.057 2.11.096 3.043.116.613 0 1.026-.134 1.271-.403.245-.27.37-.81.37-1.53V3.005h3.674V25.05c0 1.606-.264 2.733-.793 3.381-.528.648-1.499 1.021-2.911 1.12a82.465 82.465 0 0 1-3.993.13v-.005Zm13.658-2.088-2.645-1.376a106.768 106.768 0 0 0 2.275-5.503l2.756 1.03a125.343 125.343 0 0 1-2.386 5.849Zm8.472-15.68h2.566v3.295h-13.233v-3.296h7.119a322.406 322.406 0 0 0 1.88-3.699l3.15 1.205c-.459.788-.953 1.62-1.482 2.494Zm-1.959 8.312v5.619c0 1.204-.221 2.103-.662 2.696-.496.63-1.289.982-2.382 1.061a36.7 36.7 0 0 1-2.541.086 112.753 112.753 0 0 0-.713-3.669c.686.04 1.225.058 1.638.058a1.144 1.144 0 0 0 .875-.287 1.47 1.47 0 0 0 .239-.945v-4.616h-4.687v-3.33h4.687v-2.837h3.546v2.837h4.102v3.327h-4.102Zm.107-14.98h3.946v3.323h-12.204V5.239h4.21a60.733 60.733 0 0 0-.529-2.067l4.075-.284c.138.559.306 1.345.502 2.338v.013Zm-5.481 7.422a58.205 58.205 0 0 0-2.039-3.093l2.756-1.53c.796 1.09 1.51 2.083 2.143 2.982l-2.86 1.641Zm7.517 13.418-1.984-4.212 2.621-1.263a74.06 74.06 0 0 1 2.036 4.072l-2.673 1.403Zm11.941-10.263v13.675h-3.442v-13.7h-1.904v.401c-.018 3.212-.204 5.793-.557 7.741a27.655 27.655 0 0 1-1.984 6.078 99.27 99.27 0 0 0-3.175-2.293 20.016 20.016 0 0 0 1.693-5.102c.282-1.586.422-3.937.422-7.053V4.81a82.968 82.968 0 0 0 9.743-1.147l1.163 3.641c-2.4.365-4.835.662-7.305.89v3.898h7.492v3.699l-2.146.024Zm7.568 14.122a67.666 67.666 0 0 0-2.648-3.898c3.741-1.78 6.362-3.796 7.862-6.05 1.464-2.216 2.258-5.054 2.382-8.515.192-3.766.294-6.585.307-8.456h4.261a1194.48 1194.48 0 0 0-.263 8.11 19.98 19.98 0 0 0-.876 1.321c-.191 4.262-1.082 7.692-2.672 10.29-1.59 2.6-4.375 4.998-8.353 7.198Zm-1.959-16.026V9.785h23.636v4.127h-23.636Zm21.493 15.71c-3.39-1.569-5.958-3.671-7.703-6.306-1.801-2.752-2.876-6.364-3.227-10.838l2.908-1.978c.388 4.225 1.43 7.493 3.126 9.804 1.697 2.312 4.272 4.044 7.728 5.198a1210.256 1210.256 0 0 0-2.832 4.12Zm6.724-6.077a159.74 159.74 0 0 0-1.225-3.21 21.745 21.745 0 0 0 4.427-1.792 16.769 16.769 0 0 0 3.625-2.58l2.86 1.406a28.485 28.485 0 0 1-9.687 6.176Zm19.561-1.55v2.868h-3.441v-2.981h-9.293v3.326h-3.438V19.33h12.069a29.974 29.974 0 0 1-1.457-1.26h-14.687v-2.638h6.301v-1.06h-4.287v-2.248h4.287v-1.091h-3.763V8.681h3.76V7.565h3.625v1.116h4.234V7.565h3.628v1.116h3.837v2.351h-3.837v1.091h4.394v2.235h-4.394v1.061h6.378v2.638h-4.816a19.007 19.007 0 0 0 5.318 2.091 31.924 31.924 0 0 0-1.268 3.214 27.9 27.9 0 0 1-3.15-1.367ZM222.392 4.48h9.528v5.017h-3.674V7.12h-16.469v2.378h-3.674V4.48h9.766a65.844 65.844 0 0 1-.477-1.492l4.632-.256c.138.571.263 1.155.368 1.748Zm-12.786 25.66a81.026 81.026 0 0 0-1.482-3.385 39.131 39.131 0 0 0 6.353-.657c1.429-.328 2.417-.778 2.964-1.348.549-.459.849-1.195.9-2.208h3.628c-.178 1.7-.593 2.99-1.246 3.87-.741.954-1.966 1.719-3.674 2.294-1.709.574-4.19 1.052-7.443 1.433Zm12.467-18.017v-1.091h-4.234v1.091h4.234Zm0 3.296v-1.06h-4.234v1.06h4.234Zm8.193 14.635a399.527 399.527 0 0 0-11.754-3.326l2.012-2.468c3.564.803 7.305 1.683 11.224 2.639l-1.482 3.155Z"/>
  <defs>
    <clipPath id="a">
      <path fill="#fff" d="M0 0h631.024v56H0z"/>
    </clipPath>
  </defs>
</svg>
