<svg id="图层_1" data-name="图层 1" xmlns="http://www.w3.org/2000/svg" viewBox="0 0 1293.71 413.56"><defs><style>.cls-1{fill:#2936bd;}</style></defs><title>icon</title><path d="M-754,1574h16.48v4h-22.19v-3a31.19,31.19,0,0,1,4.17-5.78,40.42,40.42,0,0,1,5.75-5.22,33.13,33.13,0,0,0,6-5.27,6,6,0,0,0,1.35-3.76,5.27,5.27,0,0,0-1.43-3.92,6.18,6.18,0,0,0-4.56-1.54,6,6,0,0,0-4.17,1.46,8.6,8.6,0,0,0-2.3,4.55l-4.41-1.26a11.45,11.45,0,0,1,4-6.42,12.64,12.64,0,0,1,7.7-2.17,10.46,10.46,0,0,1,7.62,2.69,8.11,8.11,0,0,1,2.51,6.1,9.55,9.55,0,0,1-1.47,5.42,24.46,24.46,0,0,1-6.2,5.58A32.1,32.1,0,0,0-754,1574Z" transform="translate(768.68 -1167.28)"/><path d="M-718,1545.56a9.73,9.73,0,0,1,8.54,4.19q2.89,4.2,2.89,12.28,0,8.31-2.89,12.43t-8.46,4a9.73,9.73,0,0,1-8.21-3.84q-3.23-4.25-3.22-12.63,0-8,3.06-12.28A9.6,9.6,0,0,1-718,1545.56Zm.08,29.22a4.92,4.92,0,0,0,4.57-2.7c1.16-2.06,1.74-5.39,1.74-10s-.55-7.92-1.66-10a5.06,5.06,0,0,0-4.73-2.85,5,5,0,0,0-4.6,2.89q-1.75,3.21-1.75,9.94t1.83,9.93A5,5,0,0,0-718,1574.78Z" transform="translate(768.68 -1167.28)"/><path d="M-693.51,1574H-677v4h-22.18v-3a31.6,31.6,0,0,1,4.16-5.78,41.06,41.06,0,0,1,5.76-5.22,33.13,33.13,0,0,0,5.95-5.27,6,6,0,0,0,1.35-3.76,5.27,5.27,0,0,0-1.43-3.92,6.18,6.18,0,0,0-4.56-1.54,6,6,0,0,0-4.17,1.46,8.6,8.6,0,0,0-2.3,4.55l-4.41-1.26a11.45,11.45,0,0,1,4-6.42,12.64,12.64,0,0,1,7.7-2.17,10.46,10.46,0,0,1,7.62,2.69,8.1,8.1,0,0,1,2.5,6.1,9.55,9.55,0,0,1-1.46,5.42,24.46,24.46,0,0,1-6.2,5.58A32.1,32.1,0,0,0-693.51,1574Z" transform="translate(768.68 -1167.28)"/><path d="M-650.24,1567.05h4.12v3.57h-4.12v7.4h-4.33v-7.4h-15.6v-3l15.56-21.9h4.37Zm-15.25,0h10.92v-12.51c0-1.47.07-2.66.12-3.56-.64,1.11-1.27,2.13-1.91,3Z" transform="translate(768.68 -1167.28)"/><path d="M-615.55,1571.88v8.87h-4.33v-8.87h-18.89v-3.76h5.63v-10.88h13.26v-6.06h-11.07v-3.76H-603v3.76h-12.54v6.06H-604v3.68h-11.59v7.2h14v3.76Zm-20.76-12.23a42.33,42.33,0,0,0-2.34-3.72,35.69,35.69,0,0,0,5-5.82,34.82,34.82,0,0,0,3.73-6.89l4.64.59a62.76,62.76,0,0,1-4.8,8.48A54.83,54.83,0,0,1-636.31,1559.65Zm16.43,8.47v-7.2H-629v7.2Z" transform="translate(768.68 -1167.28)"/><path d="M-594.71,1569.83l4.68-1.07a7.12,7.12,0,0,0,2.34,4.63,6.69,6.69,0,0,0,4.41,1.39,6.1,6.1,0,0,0,4.76-2,7.32,7.32,0,0,0,1.79-5.15,7.26,7.26,0,0,0-1.71-5.11,6.36,6.36,0,0,0-4.92-1.94,7.23,7.23,0,0,0-6.27,3.13l-3.77-.16,1.46-17.34h18.22l0,3.92h-14.25l-1,9.5a9.44,9.44,0,0,1,6.79-2.53,10,10,0,0,1,7.5,2.85,10.1,10.1,0,0,1,2.7,7.36,11,11,0,0,1-2.94,8.12c-2,2-4.74,3-8.25,3a12.3,12.3,0,0,1-7.67-2.22A11,11,0,0,1-594.71,1569.83Z" transform="translate(768.68 -1167.28)"/><path d="M-536.57,1568.64h-18.57a23.81,23.81,0,0,1-1.91,6.45,30,30,0,0,1-3.57,5.74q-2.07-2.05-3.57-3.36A19.53,19.53,0,0,0-560,1570a46.9,46.9,0,0,0,1.07-11.64v-13.3h26.67v28.23a7.05,7.05,0,0,1-1.39,4.83,6.27,6.27,0,0,1-4.56,1.74q-2.35.09-6.51.16c-.45-2.06-.8-3.55-1-4.47q2.82.2,6,.19a3.47,3.47,0,0,0,2.46-.67,3.59,3.59,0,0,0,.67-2.53Zm-18-9.9v1.9c0,1.64-.1,3-.16,4.24h18.18v-6.14Zm18-3.8V1549h-18v5.9Z" transform="translate(768.68 -1167.28)"/><path d="M-511.64,1578v-25q-2.82,3-9.72,6v-4.2q7.93-3.45,10.83-9h3.61V1578Z" transform="translate(768.68 -1167.28)"/><path d="M-495.84,1569.83l4.68-1.07a7.12,7.12,0,0,0,2.34,4.63,6.69,6.69,0,0,0,4.41,1.39,6.1,6.1,0,0,0,4.76-2,7.32,7.32,0,0,0,1.79-5.15,7.26,7.26,0,0,0-1.71-5.11,6.36,6.36,0,0,0-4.92-1.94,7.25,7.25,0,0,0-6.27,3.13l-3.77-.16,1.47-17.34h18.21l0,3.92h-14.25l-1,9.5a9.44,9.44,0,0,1,6.79-2.53,10,10,0,0,1,7.5,2.85,10.1,10.1,0,0,1,2.7,7.36,11,11,0,0,1-2.94,8.12c-2,2-4.73,3-8.25,3a12.25,12.25,0,0,1-7.66-2.22A11,11,0,0,1-495.84,1569.83Z" transform="translate(768.68 -1167.28)"/><path d="M-437.54,1577.82h-19.8v2.58h-4.41v-34.8h28.62v34.8h-4.41Zm0-18.21v-10h-19.8v10Zm0,14.22v-10.3h-19.8v10.3Z" transform="translate(768.68 -1167.28)"/><path d="M-424,1564.2v-4.35h40.48v4.35Z" transform="translate(768.68 -1167.28)"/><path d="M-384.31,1564.2v-4.35h40.49v4.35Z" transform="translate(768.68 -1167.28)"/><path d="M-337.08,1574h16.48v4h-22.19v-3a31.66,31.66,0,0,1,4.17-5.78,40.42,40.42,0,0,1,5.75-5.22,33.13,33.13,0,0,0,5.95-5.27,6,6,0,0,0,1.35-3.76,5.27,5.27,0,0,0-1.43-3.92,6.18,6.18,0,0,0-4.56-1.54,6,6,0,0,0-4.17,1.46,8.6,8.6,0,0,0-2.3,4.55l-4.41-1.26a11.45,11.45,0,0,1,4-6.42,12.64,12.64,0,0,1,7.7-2.17,10.5,10.5,0,0,1,7.63,2.69,8.14,8.14,0,0,1,2.5,6.1,9.47,9.47,0,0,1-1.47,5.42,24.46,24.46,0,0,1-6.2,5.58A32.1,32.1,0,0,0-337.08,1574Z" transform="translate(768.68 -1167.28)"/><path d="M-301.08,1545.56a9.72,9.72,0,0,1,8.54,4.19q2.9,4.2,2.89,12.28,0,8.31-2.89,12.43t-8.46,4a9.73,9.73,0,0,1-8.21-3.84q-3.23-4.25-3.22-12.63,0-8,3.06-12.28A9.6,9.6,0,0,1-301.08,1545.56Zm.08,29.22a4.92,4.92,0,0,0,4.57-2.7c1.16-2.06,1.74-5.39,1.74-10s-.55-7.92-1.66-10a5.06,5.06,0,0,0-4.73-2.85,5,5,0,0,0-4.6,2.89q-1.76,3.21-1.75,9.94t1.83,9.93A5,5,0,0,0-301,1574.78Z" transform="translate(768.68 -1167.28)"/><path d="M-276.55,1574h16.48v4h-22.19v-3a31.19,31.19,0,0,1,4.17-5.78,40.42,40.42,0,0,1,5.75-5.22,33.13,33.13,0,0,0,5.95-5.27,6,6,0,0,0,1.35-3.76,5.27,5.27,0,0,0-1.43-3.92,6.18,6.18,0,0,0-4.56-1.54,6,6,0,0,0-4.17,1.46,8.6,8.6,0,0,0-2.3,4.55l-4.41-1.26a11.45,11.45,0,0,1,4-6.42,12.64,12.64,0,0,1,7.7-2.17,10.46,10.46,0,0,1,7.62,2.69,8.11,8.11,0,0,1,2.51,6.1,9.47,9.47,0,0,1-1.47,5.42,24.46,24.46,0,0,1-6.2,5.58A32.1,32.1,0,0,0-276.55,1574Z" transform="translate(768.68 -1167.28)"/><path d="M-233.28,1567.05h4.12v3.57h-4.12v7.4h-4.33v-7.4h-15.6v-3l15.56-21.9h4.37Zm-15.24,0h10.91v-12.51c0-1.47.07-2.66.12-3.56-.64,1.11-1.27,2.13-1.91,3Z" transform="translate(768.68 -1167.28)"/><path d="M-198.59,1571.88v8.87h-4.33v-8.87h-18.89v-3.76h5.63v-10.88h13.26v-6.06H-214v-3.76H-186v3.76h-12.54v6.06H-187v3.68h-11.59v7.2h14v3.76Zm-20.76-12.23a42.33,42.33,0,0,0-2.34-3.72,35.69,35.69,0,0,0,5-5.82,34.82,34.82,0,0,0,3.73-6.89l4.64.59a62.76,62.76,0,0,1-4.8,8.48A54.83,54.83,0,0,1-219.35,1559.65Zm16.43,8.47v-7.2h-9.17v7.2Z" transform="translate(768.68 -1167.28)"/><path d="M-168.67,1578v-25c-1.87,2-5.12,4-9.72,6v-4.2q7.94-3.45,10.84-9h3.61V1578Z" transform="translate(768.68 -1167.28)"/><path d="M-143.78,1578v-25q-2.82,3-9.72,6v-4.2q7.94-3.45,10.83-9h3.61V1578Z" transform="translate(768.68 -1167.28)"/><path d="M-100.16,1568.64h-18.57a23.81,23.81,0,0,1-1.91,6.45,30,30,0,0,1-3.57,5.74q-2.07-2.05-3.57-3.36a19.37,19.37,0,0,0,4.2-7.45,46.32,46.32,0,0,0,1.08-11.64v-13.3h26.67v28.23a7.05,7.05,0,0,1-1.39,4.83,6.28,6.28,0,0,1-4.57,1.74q-2.34.09-6.5.16c-.45-2.06-.8-3.55-1-4.47q2.82.2,6,.19a3.47,3.47,0,0,0,2.46-.67,3.59,3.59,0,0,0,.67-2.53Zm-18-9.9v1.9c0,1.64-.1,3-.16,4.24h18.18v-6.14Zm18-3.8V1549h-18v5.9Z" transform="translate(768.68 -1167.28)"/><path class="cls-1" d="M-757.18,1420.85V1408h-9.2v-5h42.51v5h-8.5v12.83h10.56v5.08h-10.56v20.71h-5.55v-20.71h-14q-.21,7.85-2.86,12.43t-9.1,9c-1.17-1.27-2.55-2.66-4.15-4.19q5.81-3.54,8.15-7.19t2.6-10h-11.45v-5.08Zm5.41-12.83v12.83h13.85V1408Z" transform="translate(768.68 -1167.28)"/><path class="cls-1" d="M-712.66,1423.89q-3.11-3.69-6.65-7.29l3.8-2.94q3,2.85,7,7Zm-1.05,22.8-4.8-1.4q2.14-8.32,4-17.86l4.7,1.4Q-712,1438.7-713.71,1446.69Zm2.5-35.62q-3.4-3.9-6.7-7.39l4-2.89q4,4.1,6.9,7Zm25.21.89h11.25v19.56h-9v10a5.7,5.7,0,0,1-1.1,3.84,5,5,0,0,1-3.6,1.4c-1.9.07-3.6.1-5.1.1-.24-1.17-.56-2.63-1-4.39,1.11.06,2.44.1,4,.1a2.11,2.11,0,0,0,1.6-.5,2.67,2.67,0,0,0,.5-1.8v-8.73h-9.06V1412H-691q.64-2.39,1.25-4.83h-11.16v12.37a81.24,81.24,0,0,1-1.15,15.51,48.33,48.33,0,0,1-4.55,12.38q-1.85-1.61-4.25-3.54a33.6,33.6,0,0,0,4-10,73.42,73.42,0,0,0,1.05-14.22v-16.91h33.66v4.39h-12.4Q-685,1408.42-686,1412Zm-12.81,33.53q-1.65-1.59-3.25-2.94a55.16,55.16,0,0,0,7-9.18l3.86,2.24Q-694.86,1440.86-698.81,1445.49Zm19.41-25.69V1416h-13.5v3.79Zm0,7.68v-3.79h-13.5v3.79Zm4.2,17.46q-4.5-5.93-7-9.18l3.45-2.29q3.79,4.29,7.3,8.88Z" transform="translate(768.68 -1167.28)"/><path class="cls-1" d="M-633.19,1426.08h11.26v5h-47.22v-5h11.21v-11.77h-9.56v-5h9.56v-8.93h5.55v8.93h13.65v-8.93h5.55v8.93h9.56v5h-9.56ZM-665,1446.94c-1.3-1.8-2.43-3.29-3.4-4.49a138.57,138.57,0,0,0,15.71-9.58l3.85,3.94Q-657.95,1442.9-665,1446.94Zm26.31-20.86v-11.77h-13.65v11.77Zm11.81,20.71q-9.17-6.24-15.46-10l3.45-3.94q8,4.7,15.56,9.53Z" transform="translate(768.68 -1167.28)"/><path class="cls-1" d="M-616.13,1447.29l-3.3-2.5a18,18,0,0,0,2.45-5.43,37.72,37.72,0,0,0,.6-7.84v-6.73h11.3V1442a5.46,5.46,0,0,1-.85,3.44,4.52,4.52,0,0,1-3.15,1.25c-1.3.07-2.45.1-3.45.1a33.56,33.56,0,0,0-.6-3.54c.67,0,1.48,0,2.45,0a2.34,2.34,0,0,0,1.55-.35,2.5,2.5,0,0,0,.3-1.55v-13.77h-3.8v4a41.62,41.62,0,0,1-.75,8.88A23.73,23.73,0,0,1-616.13,1447.29Zm24-43.61h19.9V1407h-37.36v2.29h33.36v3.14h-38.26V1407h-4.4v-3.35h20.81c-.5-1.46-.89-2.54-1.15-3.24l5.9-.55Zm-23.31,35.87v-2.74h9.2v2.74Zm.4-5.93v-2.75h8.45v2.75Zm38-11h-36.81v-8h36.81Zm-4.85-2.94v-2.1h-27.16v2.1ZM-595.22,1438q2.7,2.29,4.9,4.49l-2.3,2.69c-1.07-1.19-2.29-2.51-3.65-3.94a17.61,17.61,0,0,1-6,6c-.87-1.17-1.64-2.16-2.31-3q4-2.29,5.26-4.44a12.54,12.54,0,0,0,1.3-6.13v-4h3.2v4A22.64,22.64,0,0,1-595.22,1438Zm-7.81.4v-13.57h13.26v13.57h-3.3v-10.48h-6.7v10.48Zm15,8.93c-1-.83-1.95-1.67-2.95-2.5a15.45,15.45,0,0,0,2.8-5.14,29.79,29.79,0,0,0,.7-7.53v-7.33h11.1v16.91a1.55,1.55,0,0,0,.2.85.7.7,0,0,0,.55.25.62.62,0,0,0,.55-.3,2.15,2.15,0,0,0,.3-.9c.17-1.36.29-3,.35-4.89l3.05,1.1c-.13,2.09-.31,3.86-.54,5.29a3.51,3.51,0,0,1-1.06,2.24,3.36,3.36,0,0,1-2.4.8h-1.3a3.37,3.37,0,0,1-2.55-.85,4,4,0,0,1-.8-2.79v-14.62h-4v4.49a35.28,35.28,0,0,1-.8,8.58A20.53,20.53,0,0,1-588.07,1447.34Zm6.1-8.93q-1.1-3.09-2.6-6.44l2.6-1a40.6,40.6,0,0,1,2.55,6.14Z" transform="translate(768.68 -1167.28)"/><path class="cls-1" d="M-542.16,1420.25V1427h-6.6v-6.78Z" transform="translate(768.68 -1167.28)"/><path class="cls-1" d="M-506.64,1418.7V1447h-5v-19a67,67,0,0,1-5.95,10.58q-.94-3.2-1.8-5.74a46.76,46.76,0,0,0,7.15-14.22h-6.5v-4.54h7.1v-6.49q-3.3.25-6,.4c-.26-1.79-.51-3.36-.75-4.69q9.66-.5,17.66-1.54l.9,4.69q-3.4.45-6.85.75v6.88h6.55v4.54Zm4.6,12.77q-1.95-1.85-6-5.49l2.95-3.34c2.13,1.77,4.25,3.51,6.35,5.24Zm23.56,2.75v12.87h-5.41v-12.37l-16.75,1.49-.5-4.89,17.25-1.54v-29.44h5.41v28.94l6.3-.55.3,4.89Zm-12.51-7.29q-5.25-4.59-8.25-6.88l3.2-3.34q3.41,2.49,8.45,6.43Zm2.4-11.77q-3.3-3-8.35-7.19l3.1-3.39q4.84,3.84,8.65,6.94Z" transform="translate(768.68 -1167.28)"/><path class="cls-1" d="M-468.48,1434.42v-4.54h46.21v4.54Zm1.1-14v-10.68h43.86v10.68h-5.2v-6.19h-33.36v6.19Zm7.8-11.08a85.36,85.36,0,0,0-4.8-7.13l5.35-1.5a75.19,75.19,0,0,1,4.9,6.83Zm3.85,37.52a38.31,38.31,0,0,0-1-5.19q3,.19,6.5.2a4,4,0,0,0,2.76-.7,3.86,3.86,0,0,0,.7-2.69v-10.13l8-5.09h-21.41v-4.49H-431v4.64l-10.4,6.39v10.37q0,3.45-1.5,5c-1,1.07-2.7,1.62-5,1.65S-452.79,1446.89-455.73,1446.89Zm9-38.37q-2.2-3.69-4.46-7.43l5.36-1.1q2.49,3.79,4.65,7.34Zm12.8,2.8-5-1.85a105.41,105.41,0,0,0,6.4-9l5.65,1.7Q-430.36,1406.78-433.92,1411.32Z" transform="translate(768.68 -1167.28)"/><path class="cls-1" d="M-399.66,1417.55c.1-.73.22-1.63.35-2.69q.35-3,.5-6.84H-415v-4.94h39.26V1408h-17.36c-.16,2.63-.35,4.93-.55,6.89-.13,1-.25,1.91-.35,2.64h21.61v4.94h-22.51a33.57,33.57,0,0,1-6.3,13.52q-4.76,6-13.8,11.23-1.9-2.21-3.8-4.44,8.49-4.89,12.55-9.48a26.37,26.37,0,0,0,5.6-10.83h-17.76v-4.94Zm11.81,28.14q-3.86,0-5.61-1.69t-1.8-5.64v-13.07h5.4v11.62a4.19,4.19,0,0,0,.85,3,4.16,4.16,0,0,0,3,.8H-382a4.18,4.18,0,0,0,2.85-.8,5.13,5.13,0,0,0,1.2-2.84,51,51,0,0,0,.6-5.74l5.3,1.7c-.33,3.09-.67,5.45-1,7.08a6.64,6.64,0,0,1-2.35,4.24,9.29,9.29,0,0,1-5.5,1.35Z" transform="translate(768.68 -1167.28)"/><path class="cls-1" d="M-367.2,1447.14v-44.9h15V1407l-3.7,12.82a18.12,18.12,0,0,1,3.85,11.72,10.06,10.06,0,0,1-1.4,5.79,5.82,5.82,0,0,1-4.26,2.34c-1.2.1-2.26.15-3.2.15a40.28,40.28,0,0,0-1.4-5.13,17.58,17.58,0,0,0,2.85.15,2.65,2.65,0,0,0,2.16-1.1,6.09,6.09,0,0,0,.64-3.2,15.59,15.59,0,0,0-3.85-9.87l3.75-13.82h-5.75v40.31Zm22.61-20.86v14.07q3.85-1.55,7.65-3.14c0,1.5.07,3.23.1,5.19q-4.5,1.55-8.05,3.09a17.32,17.32,0,0,0-3.45,1.65l-2.55-3.89a5.53,5.53,0,0,0,1.1-2,7.09,7.09,0,0,0,.4-2.39v-36.57h23.81v23.94Zm14.2-14.17v-5.28h-14.2v5.28Zm0,4.39h-14.2v5.29h14.2Zm-.4,19.51a34,34,0,0,0,9.26,5.79q-1.46,2.15-2.75,4.49-7.71-3.8-11.41-8.53t-5.85-13.47l4.45-.85a32.69,32.69,0,0,0,3.7,9.33q3.56-2.3,8-5.44l2.85,3.69Q-325.48,1432.87-330.79,1436Z" transform="translate(768.68 -1167.28)"/><path d="M-695.58,1195.5l-14.79,3.66a17.4,17.4,0,0,0-5.7-9.75,15.54,15.54,0,0,0-10.55-3.85q-8.91,0-14.09,7.88-4.75,7.41-4.76,18.76,0,12.75,5.62,20.25,5.28,7,13.32,7,7.17-.09,11.41-4.59t5.53-13.5l14.79,5q-2.6,13.41-10.64,20.35-8,7.13-21.09,7.12-16.26,0-25.85-11.63a40.15,40.15,0,0,1-7.09-13.22,55.63,55.63,0,0,1-2.34-16.78q0-18.48,9.77-29.73t25.42-11.25a30.61,30.61,0,0,1,20.58,7.31A31.87,31.87,0,0,1-695.58,1195.5Z" transform="translate(768.68 -1167.28)"/><path d="M-617.69,1195.5l-14.78,3.66a17.47,17.47,0,0,0-5.71-9.75,15.52,15.52,0,0,0-10.55-3.85q-8.89,0-14.09,7.88-4.75,7.41-4.75,18.76,0,12.75,5.62,20.25,5.26,7,13.31,7,7.17-.09,11.41-4.59t5.54-13.5l14.78,5q-2.6,13.41-10.64,20.35-8,7.13-21.09,7.12-16.26,0-25.85-11.63a40.34,40.34,0,0,1-7.09-13.22,56,56,0,0,1-2.33-16.78q0-18.48,9.77-29.73t25.41-11.25a30.61,30.61,0,0,1,20.58,7.31A31.87,31.87,0,0,1-617.69,1195.5Z" transform="translate(768.68 -1167.28)"/><path d="M-551.21,1186.13h-36.65v20.25h32V1220h-32v32.45h-15.48v-80.09h52.13Z" transform="translate(768.68 -1167.28)"/><path d="M-522.51,1205.35v-20.44h-13.74v-12.76H-463v12.76h-12.71v20.44h16.17v13.13h-16.17v36.2h-13.14v-36.2h-20.74q-.61,13.32-5,21.66t-14.7,16.51q-5.35-5.91-10.11-10.41,8.9-6.57,12.36-12.1,3.63-5.91,4.32-15.66h-17.8v-13.13Zm13.14-20.44v20.44h20.49v-20.44Z" transform="translate(768.68 -1167.28)"/><path d="M-440.81,1215.29q-3.81-5.91-10.11-15.29l9.42-6.93q5.26,7,11,14.53Zm2.08,40L-449.8,1252q4.16-19.41,6.4-32.82l10.8,3.09Q-436.3,1242-438.73,1255.33Zm.17-64.7q-5-7.79-10.72-15.29l9.68-6.75q4.5,5.54,11.15,14.25Zm47.29-1.13h18.76v38.83h-15v16.78c0,3.31-.66,5.82-2,7.5a8.59,8.59,0,0,1-6.39,2.91q-4.59.29-10,.28-.69-4.5-1.9-10.78,2.5.09,6.22.09a2.86,2.86,0,0,0,2.33-.84,4.52,4.52,0,0,0,.78-2.91v-13h-14.87V1189.5h10.2q.78-3.18,1.47-6.75h-15.47v21q0,18.84-1.64,29.07a121.64,121.64,0,0,1-7,24.28q-4.67-4.59-9.94-9.28a72.23,72.23,0,0,0,5.62-18.19q1.38-8.54,1.38-25.32V1171.5h59.48v11.25h-20.14Q-390.15,1185.66-391.27,1189.5Zm-22.22,64q-2.94-3-7.61-7.31a91.22,91.22,0,0,0,11.67-16.7l8.91,5.26Q-405.8,1243-413.49,1253.55Zm30-49v-5h-18.93v5Zm0,13.5V1213h-18.93v5.15Zm6.83,34.33q-6-9.57-10.89-16.88l7.95-5.72q7.08,9.66,11.58,16.13Z" transform="translate(768.68 -1167.28)"/><path d="M-328.77,1172.34q7.18,7.7,18.94,20.63l-8.56,9.75L-334,1182.94a89.44,89.44,0,0,1-22,25.32q-2.32-7.32-4.4-12.57a60.51,60.51,0,0,0,12.7-12.94,69.62,69.62,0,0,0,8.39-15.29l12.45.85C-327.59,1169.75-328.19,1171.09-328.77,1172.34ZM-340.35,1254q-6.82,0-9.86-3.56t-2.94-11.26v-40.79h36.31q-.26,11.25-.69,21.29c-.23,4.12-1.09,7.13-2.59,9s-3.78,3-7,3.28q-5.28.29-10,.38-1-6.28-1.82-11.35,4.23.2,6.75.19a3.89,3.89,0,0,0,2.76-1,6.36,6.36,0,0,0,1-3.29q.17-2.81.17-6.75h-13.83v26.54c0,2.13.35,3.57,1,4.32a4.44,4.44,0,0,0,3.54,1.21h9.17a5.42,5.42,0,0,0,3.37-.93,4.86,4.86,0,0,0,1.81-2.91q.61-3.09,1.39-8.07,6.13,2.45,10.72,4.13a102.63,102.63,0,0,1-2.25,10.22q-1.47,5.25-4.24,7.32t-8.73,2.06Zm29.91-21.47v-54.11h11.15v54.11Zm4.32,22.88c-.51-3.69-1.24-8.29-2.16-13.79q5.37.28,9.94.38c2,0,3.35-.44,4.15-1.32s1.21-2.65,1.21-5v-67.51h12v72.11q0,7.88-2.59,11.06t-9.51,3.66Q-298.68,1255.34-306.12,1255.43Z" transform="translate(768.68 -1167.28)"/><path d="M-261.51,1248.58l-8.64-4.5q3.54-7.87,7.43-18l9,3.37Q-256.92,1238-261.51,1248.58Zm27.67-51.29h8.38v10.78h-43.22v-10.78h23.25q2.77-5.36,6.14-12.1l10.29,3.94Q-231.25,1193-233.84,1197.29Zm-6.4,27.19v18.38q0,5.91-2.16,8.82c-1.62,2.06-4.21,3.21-7.78,3.47-2.59.18-5.36.28-8.3.28q-.87-5-2.33-12c2.24.13,4,.19,5.35.19a3.73,3.73,0,0,0,2.86-.94,4.82,4.82,0,0,0,.78-3.09v-15.1h-15.31V1213.6h15.31v-9.28h11.58v9.28h13.4v10.88Zm.35-49H-227v10.87h-39.86v-10.87h13.75q-.78-3.29-1.73-6.76l13.31-.93C-241.08,1169.62-240.53,1172.19-239.89,1175.44Zm-17.9,24.28q-3.72-6-6.66-10.12l9-5q3.9,5.34,7,9.75Zm24.55,43.89-6.48-13.78,8.56-4.13q4,7.5,6.65,13.32Zm39-33.57v44.73h-11.24V1210h-6.22v1.31q-.09,15.76-1.82,25.32a90.5,90.5,0,0,1-6.48,19.88q-6.13-4.59-10.37-7.5a65.5,65.5,0,0,0,5.53-16.69q1.38-7.78,1.38-23.07v-35.17a270.62,270.62,0,0,0,31.82-3.75l3.8,11.91q-11.76,1.79-23.86,2.91v12.75h24.47V1210Z" transform="translate(768.68 -1167.28)"/><path d="M-169.52,1256.27q-3.81-6.09-8.65-12.75,18.33-8.73,25.68-19.79,7.17-10.87,7.78-27.85.94-18.48,1-27.66h13.92q-.43,11.8-.86,26.53-1.31,1.79-2.86,4.32-.94,20.91-8.73,33.66T-169.52,1256.27Zm-6.4-52.42v-13.5h77.2v13.5Zm70.2,51.39q-16.61-7.7-25.16-20.63-8.82-13.5-10.54-35.45l9.5-6.47q1.9,20.73,10.21,32.07t25.24,17Q-102.26,1250.17-105.72,1255.24Z" transform="translate(768.68 -1167.28)"/><path d="M-83.76,1235.36q-1.65-4.5-4-10.5A71,71,0,0,0-73.3,1219a54.81,54.81,0,0,0,11.84-8.44l9.34,4.6A93,93,0,0,1-83.76,1235.36Zm63.89-5.07v9.38H-31.11v-9.75H-61.46v10.88H-72.69v-19.23h39.42c-1.39-1.12-3-2.5-4.76-4.12H-86v-8.63h20.58v-3.47h-14V1198h14v-3.57H-77.71v-7.69h12.28v-3.65h11.84v3.65h13.83v-3.65h11.85v3.65h12.53v7.69H-27.91V1198h14.35v7.31H-27.91v3.47H-7.08v8.63H-22.81a62,62,0,0,0,17.37,6.84,104.33,104.33,0,0,0-4.14,10.51A91,91,0,0,1-19.87,1230.29ZM-38.72,1173H-7.6v16.41h-12v-7.78H-73.39v7.78h-12V1173h31.9q-.78-2.34-1.56-4.88l15.13-.84C-39.47,1169.15-39.06,1171.06-38.72,1173Zm-41.76,83.93q-2.85-6.86-4.84-11.07a127.66,127.66,0,0,0,20.75-2.15q7-1.61,9.68-4.41,2.69-2.25,2.94-7.22H-40.1q-.87,8.34-4.07,12.66-3.63,4.68-12,7.5T-80.48,1256.93ZM-39.76,1198v-3.57H-53.59V1198Zm0,10.78v-3.47H-53.59v3.47ZM-13,1256.65q-20.76-6.2-38.39-10.88l6.57-8.07q17.46,3.94,36.66,8.63Z" transform="translate(768.68 -1167.28)"/><path d="M-762.76,1361.36v-8.81h81.27v8.81Zm14.7-56.64v5.16q8.47-1.31,17.12-2.72l1,9.19q-11.5,1.5-19.8,3.19a23.45,23.45,0,0,0-6.31,2.25l-4.67-7.5a7.64,7.64,0,0,0,2.51-5.82v-29.63h32.94v25.88Zm56.71,44.45h-61.46V1321.7h61.46Zm-44-60v-3.29h-12.71v3.29Zm0,5.34h-12.71V1298h12.71Zm5.7,26.45q-4.49-6.57-11.15-14.73l7.26-4.68q5.46,5.89,12,13.5Zm26.11,11.91v-3.47h-37.08v3.47Zm0,9.28v-3.56h-37.08v3.56Zm-3.89-47.26c.12-1,.23-2,.35-3.1.11-1.31.2-2.69.26-4.12h-15v-8.26h36.48v8.26h-11.41c-.06,1.43-.12,2.81-.18,4.12-.11.94-.23,2-.34,3.1h13.4v8.34H-699.3a29.22,29.22,0,0,1-6.92,9.85,58.48,58.48,0,0,1-12.7,9,94.57,94.57,0,0,0-6.32-8.44q10.82-5.06,14.61-10.41h-11.75v-6.75l2.16-7.31h8.64c-.52,1.93-1,3.84-1.55,5.72Zm10.12,24.57q-3.9,0-5.71-1.88c-1.15-1.19-1.73-3.06-1.73-5.63v-7h9.08v4.31a3.14,3.14,0,0,0,.43,1.88,2.24,2.24,0,0,0,1.65.47h1.47a2.22,2.22,0,0,0,1.72-.66,2.62,2.62,0,0,0,.7-1.59c.23-1.63.43-3.16.6-4.6q3.72,1.41,7.78,2.72a46.44,46.44,0,0,1-1.12,6.47,6.29,6.29,0,0,1-2.51,4.22,9.24,9.24,0,0,1-5.53,1.32Z" transform="translate(768.68 -1167.28)"/><path d="M-649.5,1281.65H-631v10h-24.3a75.37,75.37,0,0,1-9.59,11.44q-4-4.22-7.87-8.35a62,62,0,0,0,8.13-9.56,54.66,54.66,0,0,0,5.27-9.85l12.36.94C-647.92,1278.31-648.76,1280.09-649.5,1281.65Zm12.1,28.14h-28v-10.13h69.77v25.69h-29.74v5.07h33.11q-.35,8.16-.78,14.35-.53,6.93-3.29,9.75-2.76,3-9.68,3.28-5.79.18-13.23.19c-.8-4.32-1.55-8-2.24-11.16q6.39.18,12.79.19a4.74,4.74,0,0,0,2.85-.66,3.45,3.45,0,0,0,1-2.34c.17-1.19.28-2.32.34-3.38h-20.83v23.72h-12v-17.53q-10.29,10.59-28.53,16.78-3.2-5.8-6.31-11.34,17.12-4.69,25.68-11.63h-21.7l3.54-25.7h27.32Zm-10.81-10.69q-2.94-4.87-7-11.26l9.51-3.28q4.58,6.38,9.08,12.76Zm10.81,31.32v-5.07h-16.69l-.77,5.07Zm24.38-48.77h21.7v10h-27.49a74.21,74.21,0,0,1-6.49,8.25q-4.07-3.84-8.3-7.5a61,61,0,0,0,10.72-17.07l12.28.85C-611.41,1278.09-612.21,1279.91-613,1281.65Zm5.36,33.29v-5.15h-17.72v5.15Zm-3.8-15.84q-2.94-4.78-7.09-11.16l9.59-3.38q4.5,6.38,8.91,12.47Z" transform="translate(768.68 -1167.28)"/><path d="M-579.82,1355.92v-14.81h78.24v14.81Zm6.05-56v-14.82h66.13v14.82Z" transform="translate(768.68 -1167.28)"/><path d="M-471.93,1307.82v9.66q0,15.94-2.16,25.78a90.57,90.57,0,0,1-8.22,21.76q-3.36-4.5-8.47-11.16a68.61,68.61,0,0,0,5.54-16.6q1.29-7.4,1.29-23.53V1279.4h71.67v28.42Zm47.89-10.5v-6.76h-47.89v6.76Zm.18,62.54h-33.55v4.32H-469v-49.24h22.39v-5.81h11.76v5.81h22.56v49.24h-11.58Zm-22.74-27v-7.6h-10.81v7.6Zm0,16.78V1342h-10.81v7.69Zm22.74-16.78v-7.6h-11v7.6Zm0,16.78V1342h-11v7.69Z" transform="translate(768.68 -1167.28)"/><path d="M-360.93,1360.43H-396.2v-80.09h33.72q12.45,0,19.36,5.91a16.22,16.22,0,0,1,6.14,12.94q0,7.32-3.54,12t-10.9,6.85a20.21,20.21,0,0,1,12.54,6.66,17.75,17.75,0,0,1,4.93,12q0,11.54-6.31,17.44Q-346.92,1360.42-360.93,1360.43Zm7.7-58.14a8.48,8.48,0,0,0-2.68-6.57q-3.12-2.91-9.25-2.91h-15.56V1313h15.56a13.92,13.92,0,0,0,6.22-1.32Q-353.4,1309-353.23,1302.29Zm-2.34,25.13a15.8,15.8,0,0,0-7.95-1.88h-17.2V1348h17.29q6.57,0,9.85-2.9t3.29-8.63A9.72,9.72,0,0,0-355.57,1327.42Z" transform="translate(768.68 -1167.28)"/><path d="M-320.47,1294.13v-14h15.13v14Zm0,66.3V1303h15.13v57.39Z" transform="translate(768.68 -1167.28)"/><path d="M-263.93,1301.54q13.49,0,20.92,8.62,6.91,8.07,6.92,21.57,0,13.79-7.52,21.76-7.62,8.16-20.75,8.15-12.36,0-20.14-8.25t-7.79-21.57q0-13.59,7.44-21.85Q-277.24,1301.54-263.93,1301.54Zm-.43,47.45q6.23,0,9.42-4.22,3.38-4.41,3.37-13.13c-.05-5.69-1.21-10-3.45-13s-5.25-4.44-9.34-4.5a11,11,0,0,0-9.42,4.5q-3.3,4.5-3.29,13.13t3.72,13.13A11,11,0,0,0-264.36,1349Z" transform="translate(768.68 -1167.28)"/><path d="M-177.91,1326.1h-47.2v-11.53h47.2Z" transform="translate(768.68 -1167.28)"/><path d="M-130.19,1279.31q16.51,0,26.54,12.19,9.6,11.63,9.69,29.07,0,18.57-10.12,30t-26.19,11.35q-16-.29-26-11.35t-10.2-29.91q0-18.39,9.51-29.64Q-147,1279.32-130.19,1279.31Zm-.52,68q9.34,0,14.53-7.13t5.27-19.6q0-12.46-5.36-19.69a16.68,16.68,0,0,0-14.26-7.32,17.33,17.33,0,0,0-14.27,7.32q-5.53,7.41-5.62,19.69,0,12.66,5.79,19.88A16.87,16.87,0,0,0-130.71,1347.3Z" transform="translate(768.68 -1167.28)"/><path d="M-82.64,1335l15.13-3.37q1.13,8.71,5.53,12.94t11.85,4.12q6,0,9.51-3.09a9.29,9.29,0,0,0,3.19-7.32,9.54,9.54,0,0,0-1.81-6q-2.07-2.71-7.35-4.78a96.58,96.58,0,0,0-13.14-4.13q-11.16-2.81-15.82-8.25-4.41-5.25-4.41-14.35a19.13,19.13,0,0,1,7.18-15.19q7.52-6.37,19.53-6.37,13.49,0,20.84,5.62,6.91,5.36,9.42,16.7l-15.13,3.18q-.78-5.81-4.23-8.91c-2.42-2.25-5.83-3.37-10.2-3.37q-5.37,0-8.56,2.62a7.34,7.34,0,0,0-2.77,5.82,7.46,7.46,0,0,0,2.85,6.19q2.94,2.34,10.9,4.31a65.62,65.62,0,0,1,15.82,5.72,23.86,23.86,0,0,1,10.37,9.19A22.69,22.69,0,0,1-21,1337.73q0,10.79-7.09,17.16-7.6,7-21.53,7-14.68,0-22.65-6.76Q-80,1348.8-82.64,1335Z" transform="translate(768.68 -1167.28)"/><path d="M8,1313.35v-20.44H-5.78v-12.76H67.44v12.76H54.73v20.44H70.9v13.13H54.73v36.2H41.59v-36.2H20.84q-.6,13.32-5,21.66t-14.7,16.51q-5.35-5.91-10.11-10.41,8.9-6.57,12.36-12.1,3.63-5.91,4.32-15.66H-10.11v-13.13Zm13.14-20.44v20.44H41.59v-20.44Z" transform="translate(768.68 -1167.28)"/><path d="M89.66,1323.29q-3.81-5.91-10.12-15.29l9.43-6.93q5.27,7,11,14.53Zm2.07,40L80.67,1360q4.14-19.41,6.4-32.82l10.8,3.09Q94.15,1350,91.73,1363.33Zm.18-64.7q-5-7.79-10.72-15.29l9.68-6.75q4.5,5.54,11.15,14.25Zm47.29-1.13H158v38.83H143v16.78c0,3.31-.66,5.82-2,7.5a8.6,8.6,0,0,1-6.4,2.91q-4.58.29-10,.28-.7-4.5-1.91-10.78,2.5.09,6.23.09a2.86,2.86,0,0,0,2.33-.84,4.52,4.52,0,0,0,.78-2.91v-13H117.15V1297.5h10.2q.78-3.18,1.47-6.75H113.35v21q0,18.84-1.65,29.07a121.53,121.53,0,0,1-7,24.28q-4.67-4.59-9.94-9.28a72.64,72.64,0,0,0,5.62-18.19q1.38-8.54,1.38-25.32V1279.5h59.48v11.25H141.1C140.58,1292.69,139.94,1294.94,139.2,1297.5Zm-22.22,64q-2.94-3-7.61-7.31a91.22,91.22,0,0,0,11.67-16.7l8.91,5.26Q124.67,1351,117,1361.55Zm30-49v-5H128v5Zm0,13.5V1321H128v5.15Zm6.83,34.33q-6-9.57-10.9-16.88l8-5.72q7.08,9.66,11.58,16.13Z" transform="translate(768.68 -1167.28)"/><path d="M189.51,1313.35v-20.44H175.77v-12.76H249v12.76H236.28v20.44h16.17v13.13H236.28v36.2H223.14v-36.2H202.39q-.6,13.32-5,21.66t-14.7,16.51q-5.35-5.91-10.11-10.41,8.9-6.57,12.36-12.1,3.63-5.91,4.32-15.66H171.44v-13.13Zm13.14-20.44v20.44h20.49v-20.44Z" transform="translate(768.68 -1167.28)"/><path d="M280.89,1300.88q-.09,6.94-.26,15-.78,19.32-2.85,28.14t-8.47,20.81q-2.69-3.18-8.65-10a71.57,71.57,0,0,0,6.49-16.88q1.55-7.22,2-22.13.27-7.5.35-14.91h-7.35v-12h39.34v12ZM278,1361.83q-.78-5.62-2.34-12.47c2.14.13,4.38.19,6.75.19a4.64,4.64,0,0,0,3.37-1,6.69,6.69,0,0,0,1.12-3.85q.62-9.29.69-22H274.06v-12.09h25.16q-.25,18.84-1,38.45-.09,6.09-2.42,9.09c-1.62,2.13-4,3.28-7.26,3.47Q284.18,1361.75,278,1361.83Zm.43-67.7q-1.64-8.45-3.8-17.16l13.22-1.32q1.74,8.16,3.12,16.51Zm49.8,45a55.09,55.09,0,0,0,15.56,11.72q-5.28,8.91-7.7,13A99.18,99.18,0,0,1,320.66,1350a103.09,103.09,0,0,1-17,14.81q-3.56-5.91-7.78-12.37,11.06-6.76,17.29-13.42-6.31-11.71-9.17-32.35l9.43-10.88q2.25,20.73,7.43,31.89a57.94,57.94,0,0,0,4.41-14,137.33,137.33,0,0,0,2.16-18.1H339a165,165,0,0,1-3.37,24.29A74.61,74.61,0,0,1,328.27,1339.14Zm-8.3-50.08h23.08v12.66H315.13a202.65,202.65,0,0,1-11.59,22.7q-2.85-5.25-6.83-12.29,9.42-15.37,14.09-36.57l12.71,1.69Q321.79,1283.43,320,1289.06Z" transform="translate(768.68 -1167.28)"/><path d="M361,1364.27q-3.81-6.09-8.65-12.75,18.33-8.73,25.68-19.79,7.17-10.87,7.78-27.85.94-18.48.95-27.66h13.92q-.44,11.8-.87,26.53-1.29,1.79-2.85,4.32-.95,20.91-8.73,33.66T361,1364.27Zm-6.4-52.42v-13.5h77.2v13.5Zm70.2,51.39q-16.61-7.7-25.16-20.63-8.82-13.5-10.55-35.45l9.51-6.47q1.9,20.73,10.2,32.07t25.25,17Q428.21,1358.17,424.75,1363.24Z" transform="translate(768.68 -1167.28)"/><path d="M446.71,1343.36q-1.65-4.5-4-10.5a71.19,71.19,0,0,0,14.44-5.82A55.3,55.3,0,0,0,469,1318.6l9.34,4.6A93,93,0,0,1,446.71,1343.36Zm63.88-5.07v9.38H499.36v-9.75H469v10.88H457.77v-19.23h39.42c-1.38-1.12-3-2.5-4.75-4.12h-48v-8.63H465v-3.47H451V1306h14v-3.57H452.76v-7.69H465v-3.65h11.85v3.65h13.83v-3.65h11.84v3.65h12.54v7.69H502.55V1306h14.36v7.31H502.55v3.47h20.84v8.63H507.66a61.87,61.87,0,0,0,17.37,6.84,104.37,104.37,0,0,0-4.15,10.51A91,91,0,0,1,510.59,1338.29ZM491.75,1281h31.12v16.41h-12v-7.78H457.08v7.78h-12V1281H477q-.76-2.34-1.55-4.88l15.13-.84Q491.23,1278.09,491.75,1281ZM450,1364.93q-2.85-6.86-4.84-11.07a127.66,127.66,0,0,0,20.75-2.15q7-1.61,9.68-4.41,2.69-2.25,2.94-7.22h11.84q-.86,8.34-4.06,12.66-3.63,4.68-12,7.5T450,1364.93ZM490.71,1306v-3.57H476.88V1306Zm0,10.78v-3.47H476.88v3.47Zm26.71,47.83q-20.75-6.2-38.38-10.88l6.57-8.07q17.46,3.94,36.66,8.63Z" transform="translate(768.68 -1167.28)"/></svg>